<svg 
 xmlns="http://www.w3.org/2000/svg"
 xmlns:xlink="http://www.w3.org/1999/xlink"
 width="250px" height="300px">
<path fill-rule="evenodd"  fill="rgb(0, 0, 0)"
 d="M224.1000,300.000 L25.000,300.000 C11.193,300.000 -0.000,288.807 -0.000,275.000 L-0.000,187.000 C-0.000,173.193 11.193,162.000 25.000,162.000 L31.000,162.000 L31.000,91.1000 L31.051,91.1000 C32.119,41.012 73.756,-0.000 125.000,-0.000 C176.244,-0.000 217.881,41.012 218.949,91.1000 L218.1000,91.1000 L218.1000,162.000 L224.1000,162.000 C238.807,162.000 250.000,173.193 250.000,187.000 L250.000,275.000 C250.000,288.807 238.807,300.000 224.1000,300.000 ZM193.000,94.000 L192.510,94.000 C192.510,56.715 162.285,26.490 125.000,26.490 C87.715,26.490 57.490,56.715 57.490,94.000 C57.490,96.768 57.676,99.492 57.1000,102.173 L57.1000,159.910 L57.1000,162.000 L193.000,162.000 L193.000,94.000 Z"/>
</svg>