<svg 
 xmlns="http://www.w3.org/2000/svg"
 xmlns:xlink="http://www.w3.org/1999/xlink"
 width="268px" height="320px">
<path fill-rule="evenodd"  fill="rgb(0, 0, 0)"
 d="M242.068,319.881 L25.600,319.881 C11.793,319.881 0.600,308.688 0.600,294.881 L0.600,197.791 C0.600,183.984 11.793,172.791 25.600,172.791 L33.642,172.791 L33.642,98.180 L33.696,98.180 C34.835,43.834 79.215,0.120 133.834,0.120 C188.453,0.120 232.833,43.834 233.972,98.180 L234.026,98.180 L234.026,172.791 L242.068,172.791 C255.875,172.791 267.068,183.984 267.068,197.791 L267.068,294.881 C267.068,308.688 255.875,319.881 242.068,319.881 ZM132.1000,292.1000 L133.1000,292.1000 C159.405,292.1000 180.000,272.405 180.000,247.000 C180.000,221.595 159.405,200.1000 133.1000,200.1000 L132.1000,200.1000 C107.595,200.1000 87.000,221.595 87.000,247.000 C87.000,272.405 107.595,292.1000 132.1000,292.1000 ZM206.313,100.312 L205.791,100.312 C205.791,60.571 173.575,28.355 133.834,28.355 C94.093,28.355 61.877,60.571 61.877,100.312 C61.877,103.262 62.076,106.165 62.421,109.023 L62.421,170.563 L62.421,172.791 L206.313,172.791 L206.313,100.312 Z"/>
</svg>