<?xml version="1.0" encoding="UTF-8"?><svg xmlns="http://www.w3.org/2000/svg" viewBox="0 0 189.23 189.42"><defs><style>.c{fill:#e88a4c;}.d{fill:#ac612f;}.e{fill:#f6b386;}.f{fill:#b16633;}.g{fill:#ad622f;}.h{fill:#d17e47;}.i{fill:#f5a46d;}.j{fill:#b36733;}.k{fill:#f4a46d;}</style></defs><g id="a"/><g id="b"><path class="k" d="M3.76,68.39c2.49-9.83,6.95-18.78,12.69-27.04C31.4,19.86,51.77,6.38,77.52,1.63c19.55-3.6,38.54-1.26,56.71,7.13,12.39,5.72,23.03,13.76,31.94,24.01,8.72,10.04,15.03,21.49,18.89,34.25,.08,.27,.07,.56,.1,.84-.57,2.24-2.27,3.68-3.79,5.2-1.96,1.97-2.47,4.05-2,6.91,4.22,25.61-1.97,48.62-18.2,68.76-14.05,17.43-32.56,27.45-54.65,30.41-23.88,3.2-45.5-2.94-64.31-17.87-17.81-14.14-28.21-32.81-31.35-55.36-1.21-8.73-1.06-17.54,.57-26.25,.32-1.7-.14-2.9-1.32-4.06-2.29-2.25-4.67-4.43-6.35-7.22Z"/><path class="h" d="M3.76,68.39c.6,.04,1.12,.27,1.46,.76,1.82,2.68,4.31,4.75,6.52,7.07,.61,.64,1.06,1.24,.77,2.24-1.5,5.32-1.41,10.79-1.54,16.26-.37,14.84,3.69,28.53,10.74,41.39,2.76,5.03,6.2,9.64,9.96,14.04,7.55,8.83,16.69,15.52,27.02,20.62,7.21,3.56,14.85,5.82,22.8,7.26,7.05,1.28,14.13,1.36,21.15,.87,8.27-.58,16.33-2.61,24.07-5.76,7.57-3.08,14.66-7.01,21.04-12.09,5.77-4.59,10.9-9.86,15.3-15.83,5.2-7.05,9.26-14.7,12.18-22.91,1.85-5.22,3.11-10.62,3.92-16.15,.49-3.37,.5-6.76,.82-10.12,.37-3.88-.33-7.87-.7-11.8-.23-2.43-.53-4.86-1.24-7.21-.18-.6,.03-1.11,.43-1.56,2.24-2.54,4.47-5.08,6.71-7.62,1.92,5.08,2.77,10.41,3.39,15.75,1.56,13.51,.55,26.87-3.88,39.76-11.24,32.75-33.52,54.31-67.11,62.86-31.11,7.91-59.53,1-84.18-19.56C15.66,151.89,5.05,132.75,1.27,109.91c-2.21-13.35-1.52-26.55,1.88-39.63,.17-.64,.4-1.26,.6-1.89Z"/><path class="c" d="M174.43,93.83c-.01,7.46-1.02,14.79-2.97,21.99-2.9,10.7-7.99,20.23-15,28.83-10.53,12.92-23.93,21.43-39.8,26.09-5.67,1.67-11.51,2.76-17.49,2.66-2.27-.04-4.54-.01-6.8,0-8.68,.04-17.01-1.86-25.06-4.86-7.63-2.84-14.76-6.75-21.04-11.97-5.65-4.7-10.87-9.82-15.12-15.93-5.68-8.15-9.9-16.9-12.29-26.51-1.24-5.01-2.45-10.06-2.14-15.3,.08-1.36-.78-2.54-.51-3.9,.57-1.07-.16-2.34,.5-3.4l-.04-1.43c.81-6.64,1.92-13.23,4.58-19.42,12.1-28.08,33.11-45.09,63.43-49.55,21.52-3.17,41.35,2.13,58.74,15.3,15.65,11.85,25.6,27.55,29.72,46.79,.74,3.47,.98,7.06,1.3,10.61Z"/><path class="d" d="M174.43,93.83c-.91-1.61-.73-3.46-.97-5.17-1.27-8.86-4.07-17.16-8.12-25.12-3.94-7.75-9.15-14.47-15.33-20.52-8.02-7.85-17.43-13.4-27.88-17.35-5.77-2.18-11.74-3.7-17.8-4.2-6.36-.52-12.79-.58-19.21,.24-6.88,.88-13.49,2.58-19.86,5.25-7.52,3.15-14.38,7.39-20.69,12.61-9.04,7.48-15.76,16.67-20.82,27.16-3.34,6.93-5.33,14.26-6.49,21.84-.09,.57-.16,1.12-.61,1.53-.09-8.92,2.14-17.38,5.48-25.54,3.86-9.44,9.36-17.87,16.52-25.16,11.07-11.27,24.33-18.62,39.76-22.09,7.81-1.76,15.73-2.28,23.63-1.57,16.29,1.46,30.89,7.33,43.58,17.79,8.81,7.26,15.78,15.97,20.78,26.2,4.13,8.44,6.83,17.33,7.62,26.77,.21,2.45,.4,4.88,.41,7.33Z"/><path class="d" d="M16.7,91.53c-.23,1.13,.35,2.37-.5,3.4,.13-1.14-.39-2.37,.5-3.4Z"/><path class="e" d="M37.08,80.93c-.17-4.07,.4-4.87,5.65-5.64,9.02-1.31,18.06-2.46,27.04-3.98,1.29-.22,2.62-.4,3.91-.51,1.68-.14,2.49-.9,3.16-2.32,3.36-7.09,7.01-14.03,10.41-21.1,1.42-2.96,2.75-5.98,4.32-8.89,.91-1.69,2.31-2.21,3.89-2.36,1.51-.14,2.67,.78,3.46,2.07,.25,.4,.43,.84,.64,1.26,3.38,6.76,6.84,13.47,10.09,20.3,1.46,3.07,2.91,6.14,4.39,9.21,.49,1.02,1.11,1.54,2.32,1.74,6.39,1.09,12.82,1.91,19.24,2.81,4.74,.66,9.49,1.37,14.2,2.22,3.14,.57,3.95,1.69,4.24,5.03-.42,1.49-1.28,2.67-2.38,3.74-7.48,7.31-15.24,14.33-22.49,21.88-.86,.89-1.81,1.66-3.1,1.85-5.75,1.05-11.44,2.35-17.25,3.1-14.98,1.93-29.71,.8-44.27-3.02-1.55-.35-2.61-1.44-3.67-2.51-5.46-5.46-10.95-10.9-16.37-16.4-1.79-1.82-3.9-3.27-5.62-5.15-.89-.97-1.9-1.87-1.79-3.36Z"/><path class="i" d="M63.77,107.57c2.15-.3,4.02,.84,6.02,1.24,5.43,1.08,10.89,1.64,16.38,2.26,3.86,.43,7.7,.61,11.52,.38,5.96-.35,11.92-.94,17.84-1.87,3.79-.6,7.37-2.28,11.3-2.02,.55,.46,.57,1.09,.51,1.73,.63,4.05,1.25,8.11,1.91,12.16,1.07,6.53,2.12,13.06,3.27,19.58,.26,1.48,.62,2.93,.52,4.44-1.88,3.13-3.47,3.66-6.78,2.04-9.31-4.57-18.39-9.59-27.58-14.4-2.45-1.28-4.45-1.29-6.86,.04-8.84,4.86-17.82,9.46-26.77,14.12-3.82,1.99-5.96,1.39-7.49-2.18,.22-4.23,1.25-8.33,1.94-12.49,.86-5.17,1.78-10.34,2.57-15.52,.4-2.59,1.35-5.1,1.18-7.77-.06-.65-.05-1.27,.5-1.74Z"/><path class="g" d="M57.58,145.09c.24,.28,.49,.56,.73,.83,1.77,2,3.2,2.43,5.5,1.27,4.3-2.16,8.52-4.46,12.78-6.7,5.76-3.03,11.53-6.04,17.27-9.1,1.02-.54,1.87-.56,2.91-.02,6.92,3.67,13.85,7.29,20.79,10.91,2.93,1.53,5.86,3.05,8.8,4.54,2.88,1.46,3.56,1.35,6.02-.85,.21-.19,.45-.34,.67-.51,.15,1.95,.09,3.78-1.86,4.98-1.33,.82-2.59,.92-4,.16-3.91-2.11-7.86-4.13-11.77-6.23-4.33-2.32-8.63-4.67-12.95-7.02-1.82-.99-3.67-1.95-5.45-3.02-1.19-.71-2.22-.65-3.43,.02-6.87,3.77-13.78,7.47-20.67,11.19-2.91,1.57-5.81,3.15-8.76,4.65-3.76,1.92-6.5,.24-6.6-3.97,0-.38,0-.76,.01-1.13Z"/><path class="f" d="M127.35,109.29c-.53-.47-.49-1.11-.51-1.73,3.76-3.17,7.04-6.83,10.58-10.22,4.5-4.31,8.95-8.66,13.44-12.97,1.16-1.11,2.23-2.28,3.17-3.58,.17,1.72-.49,3.09-1.7,4.3-8,8.01-16.43,15.59-24.28,23.75-.19,.2-.47,.3-.71,.45Z"/><path class="j" d="M63.77,107.57c0,.63,.08,1.28-.5,1.74-.57-.49-1.17-.94-1.7-1.46-7.59-7.57-15.17-15.16-22.76-22.73-.8-.8-1.61-1.58-2.01-2.68-.21-.57-.27-1.09,.3-1.5,.6,1.55,1.82,2.61,3,3.68,7.59,6.89,14.63,14.35,22.01,21.45,.54,.52,1.12,1,1.68,1.5Z"/></g></svg>