<?xml version="1.0" encoding="UTF-8"?><svg id="a" xmlns="http://www.w3.org/2000/svg" viewBox="0 0 189.98 190.12"><defs><style>.b{fill:#fee123;}.c{fill:#c47d06;}.d{fill:#c47303;}.e{fill:#ffd408;}.f{fill:#fed50b;}.g{fill:#c67e08;}.h{fill:#f1b62c;}.i{fill:#d0910f;}.j{fill:#fedc32;}.k{fill:#c47503;}</style></defs><path class="b" d="M3.71,69.38c1.04-5.15,2.99-9.99,5.31-14.66C23.2,26.22,45.8,8.3,77.01,1.91,95.98-1.97,114.62,.07,132.43,7.89c23.89,10.49,40.77,27.9,50.72,52,1.19,2.88,2.46,5.76,2.88,8.89-1.19,2.44-3.45,4.01-5.03,6.15-.97,1.31-1.46,2.55-1.12,4.2,3.23,15.37,1.72,30.42-3.61,45.07-6,16.48-16.04,29.98-30.37,40.27-10.92,7.84-22.95,13.1-36.15,15.23-11.98,1.94-23.96,1.55-35.8-1.79-11.39-3.21-21.78-8.23-31.12-15.51-13.75-10.72-23.02-24.52-28.52-40.96-4.4-13.14-5.03-26.58-3.04-40.2,.36-2.47-.15-4.45-2.07-6.13-2-1.75-3.54-3.95-5.51-5.74Z"/><path class="f" d="M3.71,69.38c1.05-.12,1.93,.25,2.43,1.14,1.01,1.78,2.48,3.16,4,4.4,2.17,1.77,2.45,3.99,1.94,6.38-1.47,6.93-1.39,13.98-.88,20.93,.68,9.24,2.93,18.19,6.79,26.73,3.53,7.81,7.93,14.98,13.46,21.52,6.36,7.52,13.98,13.44,22.44,18.42,7.17,4.22,14.91,6.93,22.87,9.02,4.82,1.27,9.78,2.04,14.82,2.01,2.56-.01,5.13-.06,7.69,0,6.01,.17,11.83-1.04,17.59-2.53,8-2.07,15.62-5.19,22.63-9.58,7.8-4.88,14.93-10.53,20.9-17.68,5.01-6,9.18-12.48,12.53-19.46,2.36-4.92,3.96-10.2,5.34-15.52,1.78-6.89,2.63-13.91,2.57-21-.05-5.36-.64-10.73-1.88-15.97-.28-1.2,0-1.88,.68-2.79,1.59-2.14,3.59-3.9,5.23-5.97,.33-.42,.71-.59,1.19-.65,.4,.51,.56,1.08,.5,1.73-.16,.23-.12,.4,.13,.52,1.46,3.84,2.04,7.89,2.54,11.92,1.7,13.84,.64,27.47-3.66,40.78-7.39,22.91-21.42,40.6-42.01,53.02-16.13,9.72-33.73,14.08-52.51,13.27-21.06-.91-39.88-8-56.17-21.44C16.21,153.21,4.92,133.52,1.15,109.66c-2.1-13.29-1.32-26.5,2.16-39.52,.07-.27,.26-.5,.39-.75Z"/><path class="b" d="M186.67,71.04c-.4-.08-.54-.23-.13-.52,.16,.15,.2,.32,.13,.52Z"/><path class="h" d="M175.14,96.66c-.22,9.54-2.1,18.75-5.52,27.65-3.02,7.85-7.22,15.06-12.62,21.45-3.29,3.89-7.01,7.43-10.97,10.73-4.54,3.79-9.46,6.89-14.72,9.54-7.92,3.99-16.23,6.57-25.06,7.72-6.14,.8-12.28,.82-18.36,.35-8.51-.65-16.72-2.96-24.54-6.5-6.94-3.14-13.42-7.07-19.19-12.02-3.22-2.77-6.19-5.84-8.94-9.14-2.43-2.92-4.73-5.91-6.75-9.12-5.19-8.27-8.67-17.21-10.59-26.77-.7-3.52-1.27-7.07-1.14-10.68,.06-1.53-.91-2.93-.47-4.48,.63-11.61,3.46-22.61,9.04-32.86,7.51-13.79,18.13-24.48,31.82-32.13,9.24-5.16,19.14-8.48,29.66-9.41,14.08-1.25,27.83,.24,40.94,6.13,17.19,7.72,30.16,19.89,38.98,36.44,3.58,6.71,6.19,13.84,7.28,21.43,.94,3.83,.62,7.79,1.12,11.66Z"/><path class="d" d="M173.49,84.74c-1.2-5.76-3.07-11.29-5.42-16.69-2.62-6.05-6.07-11.58-10.13-16.71-5.74-7.26-12.52-13.43-20.45-18.27-8.48-5.18-17.58-8.66-27.38-10.55-7.45-1.44-14.93-1.36-22.37-.88-8.24,.53-16.2,2.79-23.77,6.18-9.53,4.26-18.02,10.05-25.25,17.6-7.36,7.68-12.98,16.47-16.87,26.4-2.01,5.14-3.36,10.44-4.38,15.83-.48,2.56-.55,5.21-1.19,7.76,.18-19.48,6.37-36.73,18.94-51.69,7-8.34,15.38-14.87,25.08-19.69,8.2-4.07,16.85-6.68,25.99-7.73,18.79-2.15,36.26,1.68,52.13,11.81,15.43,9.84,26.29,23.52,32.36,40.91,1.79,5.12,3.03,10.34,3.72,15.7-.34,.37-.68,.37-1.03,.02Z"/><path class="i" d="M173.49,84.74c.34,0,.69-.01,1.03-.02,1.04,3.94,.58,7.95,.62,11.94-.12-.14-.34-.29-.34-.43-.01-3.88-.89-7.66-1.31-11.49Z"/><path class="j" d="M37.19,80.91c.36-3.63,.76-4.1,4.34-4.74,5.09-.9,10.21-1.62,15.35-2.29,5.69-.73,11.34-1.76,17.02-2.55,1.71-.24,2.6-1.09,3.33-2.59,4.65-9.44,9.38-18.83,14.09-28.24,.42-.84,.8-1.7,1.45-2.43,2.22-2.47,5.13-2.24,6.68,.73,2.67,5.12,5.21,10.32,7.76,15.51,2.46,5,4.94,10,7.25,15.07,.92,2.01,2.73,1.98,4.27,2.18,7.93,1.03,15.84,2.18,23.74,3.42,2.6,.41,5.23,.6,7.82,1.15,3.2,.68,3.73,1.25,3.83,4.46,0,.28,.03,.57,.05,.85,.5,1.51-.67,2.28-1.49,3.1-7.48,7.52-15.43,14.56-22.79,22.21-.73,.76-1.61,1.32-2.67,1.54-12.28,3.58-24.85,5.1-37.57,4.53-8.39-.38-16.74-1.68-24.89-3.93-1.62-.61-2.88-1.74-4.11-2.93-7.24-7.03-14.03-14.51-21.6-21.2-1.11-.99-2.21-2.1-1.85-3.85Z"/><path class="e" d="M64.06,108.12c4.45,.69,8.83,1.79,13.29,2.48,7.38,1.14,14.78,1.98,22.22,1.43,7.77-.58,15.53-1.38,23.12-3.31,1.72-.44,3.33-1.43,5.21-1.14,.43,.76-.03,1.51-.03,2.27,.57,3.32,1.11,6.65,1.72,9.97,.93,5.07,1.57,10.19,2.56,15.25,.72,3.67,1.51,7.36,1.42,11.15-1.91,3.12-3.5,3.64-6.83,1.99-9.35-4.61-18.43-9.74-27.73-14.47-2.35-1.2-4.28-1.29-6.64-.02-8.93,4.81-17.91,9.51-26.91,14.19-3.8,1.98-5.86,1.45-7.64-2.1,.01-3.89,1.12-7.62,1.75-11.42,.71-4.26,1.46-8.52,2.18-12.78,.52-3.06,1.04-6.12,1.52-9.18,.13-.84,.16-1.69,.23-2.54-.04-.66-.08-1.32,.55-1.78Z"/><path class="k" d="M57.83,145.82c.23,.17,.5,.3,.67,.5,2.11,2.48,3.49,2.7,6.39,1.17,9.31-4.92,18.67-9.76,27.93-14.76,2.07-1.12,3.68-1.13,5.76,0,9.1,4.91,18.3,9.64,27.48,14.42,3.88,2.02,4.14,1.96,7.51-.92,.19,1.97,.07,3.79-1.89,4.97-1.34,.82-2.61,.88-4.01,.12-3.58-1.94-7.2-3.8-10.79-5.74-3.75-2.02-7.47-4.09-11.22-6.12-2.66-1.45-5.38-2.81-7.99-4.33-1.39-.81-2.53-.76-3.94,.03-6.12,3.41-12.3,6.71-18.46,10.04-3.5,1.89-7,3.77-10.54,5.59-4.2,2.16-6.94,.39-6.92-4.4,0-.19,0-.38,.02-.57Z"/><path class="c" d="M127.87,109.85c-.85-.77-.33-1.52,.03-2.27,.44-.36,.9-.68,1.31-1.08,7.66-7.45,15.32-14.91,22.96-22.38,.8-.78,1.79-1.44,1.98-2.68,1.16,1.57,.02,2.69-.87,3.69-1.57,1.76-3.31,3.37-4.98,5.04-3.61,3.62-7.08,7.39-10.89,10.79-3.24,2.9-6.16,6.14-9.54,8.89Z"/><path class="g" d="M64.06,108.12c-.03,.64,.05,1.32-.55,1.78-.57-.49-1.17-.96-1.71-1.49-7.59-7.57-15.18-15.16-22.76-22.74-.6-.6-1.25-1.2-1.67-1.93-.5-.86-1.17-1.83-.18-2.84,.27,1.38,1.13,2.38,2.13,3.28,7.56,6.78,14.49,14.21,21.81,21.24,.95,.92,1.95,1.79,2.93,2.69Z"/></svg>