<?xml version="1.0" encoding="UTF-8"?><svg xmlns="http://www.w3.org/2000/svg" viewBox="0 0 188.88 188.65"><defs><style>.c{fill:#dadbdd;}.d{fill:#525a5c;}.e{fill:#96999b;}.f{fill:#5c6365;}.g{fill:#5d6565;}.h{fill:#545c5e;}.i{fill:#8c9a9b;}.j{fill:#adbfc0;}.k{fill:#d3d3d5;}</style></defs><g id="a"/><g id="b"><path class="k" d="M3.97,67.91c.22-2.57,1.23-4.93,2.16-7.28,3.53-8.89,8.11-17.24,14.09-24.69,8.14-10.14,17.82-18.54,29.38-24.74,6.93-3.71,14.16-6.57,21.74-8.51C78.26,.92,85.3-.14,92.5,.02c5.27,.11,10.56-.23,15.77,.68,6.94,1.22,13.84,2.74,20.39,5.4,7.08,2.87,13.88,6.32,20.1,10.82,7.18,5.21,13.69,11.1,19.26,18.07,4.91,6.15,9.05,12.73,12.32,19.86,1.96,4.27,3.74,8.62,4.89,13.2-1.55,1.9-2.97,3.91-4.79,5.58-1.48,1.35-1.81,2.91-1.46,4.86,.9,5.01,1.38,10.06,1.42,15.18,.1,14.87-3.53,28.73-10.68,41.73-8.44,15.35-20.38,27.33-36.12,34.76-33.2,15.66-64.79,11.99-93.25-11.08-17.64-14.29-27.3-33.6-29.8-56.35-.83-7.58-.46-15.06,.73-22.53,.35-2.19-.08-3.77-1.68-5.31-2.15-2.08-4.27-4.24-5.66-6.97Z"/><path class="j" d="M3.97,67.91c3.17,2.29,5.01,5.86,7.98,8.34,.65,.54,.64,1.31,.47,2.1-1.25,5.91-1.71,11.88-1.56,17.91,.18,7.06,1.34,13.97,3.21,20.79,2.91,10.58,7.77,20.2,14.51,28.79,7.27,9.26,15.89,17.01,26.46,22.49,6.8,3.52,13.85,6.22,21.27,8.12,8.6,2.19,17.34,2.51,26.05,1.89,9.2-.66,18.06-3.05,26.61-6.73,7.34-3.16,14.09-7.26,20.12-12.36,8.07-6.82,14.87-14.78,20.03-24.16,4.96-9.03,8.18-18.6,9.75-28.66,1.09-6.94,1.26-14.02,.3-21.08-.37-2.69-.65-5.39-1.19-8.06-.18-.9-.26-1.91,.5-2.68,1.85-1.88,3.69-3.76,5.28-5.87,.35-.47,.88-.7,1.49-.68,3.47,11.33,4.17,22.98,3.3,34.67-.76,10.28-3.47,20.17-7.66,29.64-5.53,12.53-13.47,23.31-23.64,32.41-7.56,6.76-16.05,12.12-25.4,16.15-8.28,3.57-16.88,5.92-25.78,7.02-6.53,.8-13.1,.94-19.72,.28-7.44-.75-14.71-2.09-21.77-4.47-12.02-4.05-22.75-10.3-32.34-18.64-8.5-7.4-15.22-16.12-20.68-25.92-5.15-9.23-8.43-19.1-10.19-29.48-1.15-6.78-1.69-13.67-1.17-20.54,.54-7.2,1.39-14.38,3.77-21.27Z"/><path class="i" d="M174.05,91.83c.79,.9,.52,2,.42,2.97-.62,5.59-.88,11.23-2.19,16.74-2.68,11.23-7.3,21.52-14.38,30.71-5.64,7.32-12.32,13.44-20.09,18.41-9.74,6.23-20.3,10.23-31.8,11.64-12.21,1.49-24.24,.7-35.93-3.31-10.27-3.52-19.46-8.87-27.56-16.19-8.24-7.45-14.56-16.21-19.16-26.27-3.43-7.5-5.51-15.36-6.38-23.58-.3-2.82-.63-5.6-.38-8.43,.46-1.89,.07-3.82,.21-5.72,.12-.57,.29-1.14,.27-1.74,3.67-24.2,16.48-42.45,36.9-55.34,12.36-7.8,26.05-11.47,40.84-11.54,19.13-.09,35.97,5.86,50.7,17.83,13.92,11.32,22.92,25.84,27.11,43.32,.83,3.45,.77,7.02,1.43,10.49Z"/><path class="d" d="M174.05,91.83c-1.25-1.72-.77-3.81-1.09-5.69-2.13-12.42-7.03-23.66-14.52-33.67-8.26-11.04-18.72-19.48-31.46-25.03-7.4-3.23-15.07-5.57-23.05-6.25-12.6-1.08-24.98,.13-36.92,4.81-11.9,4.67-22.11,11.73-30.57,21.25-9.31,10.49-15.49,22.63-18.25,36.43-.24,1.19-.76,2.35-.55,3.61-.37,.33-.71,.34-1.02-.08,.88-8.88,2.95-17.47,6.77-25.56,10.56-22.36,27.63-37.46,51.6-43.59,29.15-7.46,54.96-.33,76.48,20.75,12.37,12.11,19.51,27.11,22.02,44.29,.42,2.91,.48,5.82,.57,8.74Z"/><path class="d" d="M17.19,88.34c-.43,2.04,.21,4.18-.6,6.18-.02-2.03-.03-4.05-.05-6.07,.19-.22,.4-.25,.65-.1Z"/><path class="e" d="M17.19,88.34c-.22,.03-.43,.07-.65,.1,.02-.42,.04-.83,.07-1.25,.34,.03,.68,.05,1.02,.08-.01,.41-.05,.81-.45,1.06Z"/><path class="c" d="M36.79,80.02c.73-3.53,1.28-4.17,4.87-4.77,4.63-.78,9.28-1.42,13.92-2.11,6.22-.93,12.43-1.9,18.67-2.75,1.22-.17,1.81-.72,2.3-1.72,4.85-9.8,9.72-19.59,14.59-29.38,.21-.42,.31-.9,.56-1.29,1.73-2.69,4.84-2.87,6.84-.38,.52,.65,.89,1.44,1.26,2.2,4.58,9.3,9.16,18.59,13.69,27.91,.79,1.63,1.67,2.65,3.69,2.87,4.57,.48,9.11,1.28,13.66,1.95,6.03,.9,12.08,1.73,18.1,2.72,4.1,.67,4.55,1.3,4.68,5.26-.05,1.24-.89,2.04-1.68,2.83-7.57,7.54-14.96,15.27-22.95,22.38-.78,.69-1.57,1.34-2.59,1.66-20.5,5.76-41.05,5.88-61.64,.55-1.22-.33-2.18-1.08-3.02-1.98-7.18-7.57-15.16-14.31-22.41-21.81-.98-1.02-2.01-1.99-2.4-3.41l.02-.21c-.17-.14-.22-.31-.14-.51Z"/><path class="k" d="M63.78,107.23c3.38,.15,6.55,1.46,9.89,1.83,4.08,.45,8.06,1.6,12.22,1.48,2.51-.07,4.99,.61,7.54,.57,9.94-.16,19.77-1.15,29.41-3.65,1.44-.37,2.93-.53,4.39-.79,.51,.76,.28,1.57,.18,2.37,.32,5.44,1.63,10.72,2.47,16.08,1.01,6.47,2.19,12.91,3.29,19.36-2.27,3.71-4.22,4.14-8.23,1.97-8.71-4.72-17.62-9.06-26.24-13.93-2.67-1.51-4.81-1.15-7.36,.28-8.81,4.93-17.81,9.49-26.76,14.17-3.25,1.7-5.13,1.02-6.68-2.03-.49-3.82,.69-7.48,1.25-11.18,1.12-7.33,2.53-14.62,3.77-21.94,.17-1.02,.7-1.97,.54-3.04-.34-.6-.05-1.08,.3-1.55Z"/><path class="h" d="M57.91,144.93c2.6,2.73,3.63,2.95,6.88,1.25,9.25-4.85,18.51-9.69,27.72-14.64,1.91-1.02,3.43-1.18,5.44-.09,8.85,4.81,17.82,9.4,26.71,14.12,4.51,2.39,5.06,2.37,8.52-1.1,.04,2.21,0,4.36-2.31,5.64-2.24,1.24-3.95-.06-5.76-1.04-6.71-3.62-13.42-7.22-20.14-10.83-2.65-1.43-5.33-2.81-7.95-4.29-1.17-.66-2.16-.74-3.4-.06-6.26,3.45-12.56,6.84-18.86,10.22-3.81,2.05-7.65,4.05-11.47,6.09-1.84,.98-3.44,.14-4.64-1-1.12-1.07-1.92-2.61-.74-4.27Z"/><path class="f" d="M63.78,107.23c-.1,.52-.2,1.03-.3,1.55-1.1,0-1.62-.87-2.27-1.52-7.54-7.52-15.06-15.07-22.63-22.57-1.14-1.13-1.98-2.26-1.67-3.95,4.82,5.26,10.1,10.07,15.2,15.05,3.9,3.81,7.78,7.62,11.67,11.44Z"/><path class="g" d="M127.42,109.03c-.67-.74-.59-1.54-.18-2.37,8.21-7.98,16.43-15.95,24.63-23.94,.66-.65,1.16-1.46,1.73-2.2,.55,.42,.49,.95,.26,1.51-.32,.8-.79,1.48-1.41,2.09-8.35,8.3-16.7,16.6-25.04,24.91Z"/><path class="f" d="M36.79,80.02c.07,.16,.11,.33,.14,.51-.09-.11-.18-.21-.25-.33-.02-.03,.07-.12,.11-.18Z"/></g></svg>